<svg width="285" height="39" viewBox="0 0 285 39" fill="none" xmlns="http://www.w3.org/2000/svg">
<path d="M21.64 37.3961L19.912 30.2441H10.216L8.53598 37.3961H0.375977L10.408 4.13211H19.96L29.992 37.3961H21.64ZM11.56 24.5321H18.568L15.064 9.84411L11.56 24.5321Z" fill="#141414"/>
<path d="M60.4645 11.0921C62.4805 11.0921 64.0965 11.7801 65.3125 13.1561C66.5285 14.5001 67.1365 16.3721 67.1365 18.7721V37.3961H59.5525V20.0681C59.5525 17.7961 58.8325 16.6601 57.3925 16.6601C56.5925 16.6601 55.8885 16.9321 55.2805 17.4761C54.6725 18.0201 54.0805 18.8521 53.5045 19.9721V37.3961H45.9205V20.0681C45.9205 17.7961 45.2005 16.6601 43.7605 16.6601C42.9925 16.6601 42.2885 16.9481 41.6485 17.5241C41.0405 18.0681 40.4485 18.8841 39.8725 19.9721V37.3961H32.2885V11.9081H38.9125L39.4405 14.8841C40.4325 13.6041 41.5205 12.6601 42.7045 12.0521C43.9205 11.4121 45.2965 11.0921 46.8325 11.0921C48.2725 11.0921 49.5045 11.4441 50.5285 12.1481C51.5845 12.8521 52.3525 13.8441 52.8325 15.1241C53.8565 13.7481 54.9765 12.7401 56.1925 12.1001C57.4405 11.4281 58.8645 11.0921 60.4645 11.0921Z" fill="#141414"/>
<path d="M93.0914 30.0041C93.0914 30.9641 93.2193 31.6681 93.4753 32.1161C93.7634 32.5641 94.2114 32.9001 94.8194 33.1241L93.2354 38.0681C91.6674 37.9401 90.3874 37.6041 89.3954 37.0601C88.4034 36.4841 87.6354 35.5881 87.0914 34.3721C85.4274 36.9321 82.8674 38.2121 79.4114 38.2121C76.8834 38.2121 74.8673 37.4761 73.3633 36.0041C71.8593 34.5321 71.1074 32.6121 71.1074 30.2441C71.1074 27.4601 72.1314 25.3321 74.1794 23.8601C76.2274 22.3881 79.1873 21.6521 83.0593 21.6521H85.6514V20.5481C85.6514 19.0441 85.3314 18.0201 84.6914 17.4761C84.0514 16.9001 82.9314 16.6121 81.3314 16.6121C80.4994 16.6121 79.4914 16.7401 78.3074 16.9961C77.1234 17.2201 75.9074 17.5401 74.6594 17.9561L72.9314 12.9641C74.5314 12.3561 76.1634 11.8921 77.8274 11.5721C79.5234 11.2521 81.0913 11.0921 82.5313 11.0921C86.1793 11.0921 88.8514 11.8441 90.5474 13.3481C92.2434 14.8521 93.0914 17.1081 93.0914 20.1161V30.0041ZM81.6194 32.7881C83.3474 32.7881 84.6914 31.9721 85.6514 30.3401V25.8281H83.7794C82.0514 25.8281 80.7554 26.1321 79.8913 26.7401C79.0594 27.3481 78.6433 28.2921 78.6433 29.5721C78.6433 30.5961 78.8994 31.3961 79.4114 31.9721C79.9554 32.5161 80.6914 32.7881 81.6194 32.7881Z" fill="#141414"/>
<path d="M114.06 11.0921C116.268 11.0921 117.996 11.7641 119.244 13.1081C120.492 14.4521 121.116 16.3401 121.116 18.7721V37.3961H113.532V20.0681C113.532 18.7881 113.324 17.9081 112.908 17.4281C112.524 16.9161 111.932 16.6601 111.132 16.6601C109.596 16.6601 108.124 17.7641 106.716 19.9721V37.3961H99.1322V11.9081H105.756L106.284 14.9321C107.372 13.6521 108.54 12.6921 109.788 12.0521C111.068 11.4121 112.492 11.0921 114.06 11.0921Z" fill="#141414"/>
<path d="M149.683 1.78011V37.3961H142.963L142.579 34.4201C140.787 36.9481 138.371 38.2121 135.331 38.2121C132.163 38.2121 129.747 36.9961 128.083 34.5641C126.451 32.1321 125.635 28.8041 125.635 24.5801C125.635 21.9881 126.067 19.6681 126.931 17.6201C127.795 15.5721 129.011 13.9721 130.579 12.8201C132.179 11.6681 134.003 11.0921 136.051 11.0921C138.483 11.0921 140.499 11.8921 142.099 13.4921V0.964111L149.683 1.78011ZM137.683 32.6441C139.443 32.6441 140.915 31.6841 142.099 29.7641V18.7721C141.491 18.0361 140.867 17.4921 140.227 17.1401C139.619 16.7881 138.915 16.6121 138.115 16.6121C136.707 16.6121 135.587 17.2681 134.755 18.5801C133.923 19.8921 133.507 21.9081 133.507 24.6281C133.507 27.6041 133.859 29.6841 134.563 30.8681C135.299 32.0521 136.339 32.6441 137.683 32.6441Z" fill="#141414"/>
<path d="M175.873 30.0041C175.873 30.9641 176.001 31.6681 176.257 32.1161C176.545 32.5641 176.993 32.9001 177.601 33.1241L176.017 38.0681C174.449 37.9401 173.169 37.6041 172.177 37.0601C171.185 36.4841 170.417 35.5881 169.873 34.3721C168.209 36.9321 165.649 38.2121 162.193 38.2121C159.665 38.2121 157.649 37.4761 156.145 36.0041C154.641 34.5321 153.889 32.6121 153.889 30.2441C153.889 27.4601 154.913 25.3321 156.961 23.8601C159.009 22.3881 161.969 21.6521 165.841 21.6521H168.433V20.5481C168.433 19.0441 168.113 18.0201 167.473 17.4761C166.833 16.9001 165.713 16.6121 164.113 16.6121C163.281 16.6121 162.273 16.7401 161.089 16.9961C159.905 17.2201 158.689 17.5401 157.441 17.9561L155.713 12.9641C157.313 12.3561 158.945 11.8921 160.609 11.5721C162.305 11.2521 163.873 11.0921 165.313 11.0921C168.961 11.0921 171.633 11.8441 173.329 13.3481C175.025 14.8521 175.873 17.1081 175.873 20.1161V30.0041ZM164.401 32.7881C166.129 32.7881 167.473 31.9721 168.433 30.3401V25.8281H166.561C164.833 25.8281 163.537 26.1321 162.673 26.7401C161.841 27.3481 161.425 28.2921 161.425 29.5721C161.425 30.5961 161.681 31.3961 162.193 31.9721C162.737 32.5161 163.473 32.7881 164.401 32.7881Z" fill="#141414"/>
<path d="M216.2 4.13211L215.432 10.1801H207.224V37.3961H199.352V10.1801H190.76V4.13211H216.2Z" fill="#141414"/>
<path d="M227.641 11.0921C231.545 11.0921 234.601 12.2921 236.809 14.6921C239.017 17.0601 240.121 20.3881 240.121 24.6761C240.121 27.3961 239.609 29.7801 238.585 31.8281C237.593 33.8441 236.153 35.4121 234.265 36.5321C232.409 37.6521 230.201 38.2121 227.641 38.2121C223.769 38.2121 220.713 37.0281 218.473 34.6601C216.265 32.2601 215.161 28.9161 215.161 24.6281C215.161 21.9081 215.657 19.5401 216.649 17.5241C217.673 15.4761 219.113 13.8921 220.969 12.7721C222.857 11.6521 225.081 11.0921 227.641 11.0921ZM227.641 16.6601C226.105 16.6601 224.953 17.3161 224.185 18.6281C223.417 19.9081 223.033 21.9081 223.033 24.6281C223.033 27.4121 223.401 29.4441 224.137 30.7241C224.905 32.0041 226.073 32.6441 227.641 32.6441C229.177 32.6441 230.329 32.0041 231.097 30.7241C231.865 29.4121 232.249 27.3961 232.249 24.6761C232.249 21.8921 231.865 19.8601 231.097 18.5801C230.361 17.3001 229.209 16.6601 227.641 16.6601Z" fill="#141414"/>
<path d="M260.616 36.1961C259.688 36.8361 258.6 37.3321 257.352 37.6841C256.136 38.0361 254.92 38.2121 253.704 38.2121C248.136 38.1801 245.352 35.1081 245.352 28.9961V17.1881H241.752V11.9081H245.352V6.38811L252.936 5.52411V11.9081H258.792L257.976 17.1881H252.936V28.9001C252.936 30.0841 253.128 30.9321 253.512 31.4441C253.896 31.9561 254.504 32.2121 255.336 32.2121C256.2 32.2121 257.112 31.9401 258.072 31.3961L260.616 36.1961Z" fill="#141414"/>
<path d="M282.841 30.0041C282.841 30.9641 282.969 31.6681 283.225 32.1161C283.513 32.5641 283.961 32.9001 284.569 33.1241L282.985 38.0681C281.417 37.9401 280.137 37.6041 279.145 37.0601C278.153 36.4841 277.385 35.5881 276.841 34.3721C275.177 36.9321 272.617 38.2121 269.161 38.2121C266.633 38.2121 264.617 37.4761 263.113 36.0041C261.609 34.5321 260.857 32.6121 260.857 30.2441C260.857 27.4601 261.881 25.3321 263.929 23.8601C265.977 22.3881 268.937 21.6521 272.809 21.6521H275.401V20.5481C275.401 19.0441 275.081 18.0201 274.441 17.4761C273.801 16.9001 272.681 16.6121 271.081 16.6121C270.249 16.6121 269.241 16.7401 268.057 16.9961C266.873 17.2201 265.657 17.5401 264.409 17.9561L262.681 12.9641C264.281 12.3561 265.913 11.8921 267.577 11.5721C269.273 11.2521 270.841 11.0921 272.281 11.0921C275.929 11.0921 278.601 11.8441 280.297 13.3481C281.993 14.8521 282.841 17.1081 282.841 20.1161V30.0041ZM271.369 32.7881C273.097 32.7881 274.441 31.9721 275.401 30.3401V25.8281H273.529C271.801 25.8281 270.505 26.1321 269.641 26.7401C268.809 27.3481 268.393 28.2921 268.393 29.5721C268.393 30.5961 268.649 31.3961 269.161 31.9721C269.705 32.5161 270.441 32.7881 271.369 32.7881Z" fill="#141414"/>
</svg>
