<svg width="16" height="13" viewBox="0 0 16 13" fill="none" xmlns="http://www.w3.org/2000/svg">
<path d="M9.45455 4.59062V3.61562C9.85455 3.42604 10.2636 3.28385 10.6818 3.18906C11.1 3.09427 11.5394 3.04688 12 3.04688C12.3152 3.04688 12.6242 3.07396 12.9273 3.12812C13.2303 3.18229 13.5273 3.25 13.8182 3.33125V4.225C13.5273 4.10312 13.2333 4.01172 12.9364 3.95078C12.6394 3.88984 12.3273 3.85938 12 3.85938C11.5394 3.85938 11.097 3.9237 10.6727 4.05234C10.2485 4.18099 9.84242 4.36042 9.45455 4.59062ZM9.45455 9.05937V8.06406C9.85455 7.87448 10.2636 7.73568 10.6818 7.64766C11.1 7.55964 11.5394 7.51562 12 7.51562C12.3152 7.51562 12.6242 7.54271 12.9273 7.59688C13.2303 7.65104 13.5273 7.71875 13.8182 7.8V8.69375C13.5273 8.57187 13.2333 8.48047 12.9364 8.41953C12.6394 8.35859 12.3273 8.32812 12 8.32812C11.5394 8.32812 11.097 8.38906 10.6727 8.51094C10.2485 8.63281 9.84242 8.81562 9.45455 9.05937ZM9.45455 6.825V5.85C9.85455 5.66042 10.2636 5.51823 10.6818 5.42344C11.1 5.32865 11.5394 5.28125 12 5.28125C12.3152 5.28125 12.6242 5.30833 12.9273 5.3625C13.2303 5.41667 13.5273 5.48438 13.8182 5.56563V6.45937C13.5273 6.3375 13.2333 6.24609 12.9364 6.18516C12.6394 6.12422 12.3273 6.09375 12 6.09375C11.5394 6.09375 11.097 6.15807 10.6727 6.28672C10.2485 6.41536 9.84242 6.59479 9.45455 6.825ZM3.78182 10.1562C4.43636 10.1562 5.0697 10.2409 5.68182 10.4102C6.29394 10.5794 6.89697 10.8333 7.49091 11.1719V2.49844C6.94546 2.09219 6.35455 1.77734 5.71818 1.55391C5.08182 1.33047 4.43636 1.21875 3.78182 1.21875C3.32121 1.21875 2.8697 1.28307 2.42727 1.41172C1.98485 1.54036 1.53939 1.69948 1.09091 1.88906V10.7047C1.46667 10.5151 1.89394 10.3763 2.37273 10.2883C2.85152 10.2003 3.32121 10.1562 3.78182 10.1562ZM8.58182 11.1719C9.18788 10.8333 9.78182 10.5794 10.3636 10.4102C10.9455 10.2409 11.5636 10.1562 12.2182 10.1562C12.6788 10.1562 13.1545 10.1969 13.6455 10.2781C14.1364 10.3594 14.5576 10.4677 14.9091 10.6031V1.88906C14.497 1.65885 14.0606 1.48958 13.6 1.38125C13.1394 1.27292 12.6788 1.21875 12.2182 1.21875C11.5636 1.21875 10.9303 1.33047 10.3182 1.55391C9.70606 1.77734 9.12727 2.09219 8.58182 2.49844V11.1719ZM8.03636 13C7.41818 12.4854 6.74545 12.0893 6.01818 11.8117C5.29091 11.5341 4.54545 11.3953 3.78182 11.3953C3.33333 11.3953 2.89697 11.4563 2.47273 11.5781C2.04849 11.7 1.62424 11.849 1.2 12.025C0.921212 12.174 0.651515 12.1536 0.390909 11.9641C0.130303 11.7745 0 11.5036 0 11.1516V1.74688C0 1.54375 0.0424242 1.35755 0.127273 1.18828C0.212121 1.01901 0.339394 0.886979 0.509091 0.792187C1.01818 0.521354 1.54848 0.321615 2.1 0.192969C2.65152 0.0643231 3.21212 0 3.78182 0C4.54545 0 5.28788 0.115104 6.00909 0.345313C6.7303 0.575521 7.40606 0.927604 8.03636 1.40156C8.65455 0.927604 9.31818 0.575521 10.0273 0.345313C10.7364 0.115104 11.4667 0 12.2182 0C12.7879 0 13.3455 0.0643231 13.8909 0.192969C14.4364 0.321615 14.9636 0.521354 15.4727 0.792187C15.6424 0.886979 15.7727 1.01901 15.8636 1.18828C15.9545 1.35755 16 1.54375 16 1.74688V11.1516C16 11.5307 15.8636 11.8185 15.5909 12.0148C15.3182 12.2112 15.0485 12.2146 14.7818 12.025C14.3697 11.8354 13.9515 11.6831 13.5273 11.568C13.103 11.4529 12.6667 11.3953 12.2182 11.3953C11.4545 11.3953 10.7212 11.5375 10.0182 11.8219C9.31515 12.1062 8.65455 12.499 8.03636 13Z" fill="url(#paint0_linear_33_134)"/>
<defs>
<linearGradient id="paint0_linear_33_134" x1="8" y1="0" x2="8" y2="13" gradientUnits="userSpaceOnUse">
<stop stop-color="#B16EC9" stop-opacity="0.96"/>
<stop offset="1" stop-color="#6E00FA"/>
</linearGradient>
</defs>
</svg>
