<svg width="15" height="11" viewBox="0 0 15 11" fill="none" xmlns="http://www.w3.org/2000/svg">
<path d="M7.25 10.8333L10.2667 4.33333H11.6333L14.7333 10.8333H13.2833L12.6 9.12708H9.4L8.61667 10.8333H7.25ZM9.76667 8.17917H12.1333L10.9667 5.55208H10.9333L9.76667 8.17917ZM2 9.20833L1.08333 8.46354L4.48333 5.70104C4.06111 5.30382 3.68611 4.90434 3.35833 4.5026C3.03056 4.10087 2.74444 3.68333 2.5 3.25H3.95C4.13889 3.54792 4.34722 3.83003 4.575 4.09635C4.80278 4.36267 5.06111 4.63576 5.35 4.91562C5.85 4.49132 6.26667 4.05121 6.6 3.59531C6.93333 3.13941 7.21667 2.66319 7.45 2.16667H0V1.08333H4.66667V0H6V1.08333H10.6667V2.16667H8.78333C8.53889 2.78958 8.21389 3.40121 7.80833 4.00156C7.40278 4.60191 6.90556 5.17292 6.31667 5.71458L7.95 7.05521L7.45 8.15208L5.33333 6.5L2 9.20833Z" fill="url(#paint0_linear_33_132)"/>
<defs>
<linearGradient id="paint0_linear_33_132" x1="7.36667" y1="0" x2="7.36667" y2="10.8333" gradientUnits="userSpaceOnUse">
<stop stop-color="#B16EC9" stop-opacity="0.96"/>
<stop offset="1" stop-color="#6E00FA"/>
</linearGradient>
</defs>
</svg>
